Format : AVI
Format/Info : Audio Video Interleave
File size : 1.50 GiB
Duration : 2h 5mn
Overall bit rate : 1 711 Kbps
Writing library : MPlayer

Video
ID : 0
Format : MPEG-4 Visual
Format profile : Advanced Simple@L5
Format settings, BVOP : Yes
Format settings, QPel : No
Format settings, GMC : No warppoints
Format settings, Matrix : Default (H.263)
Codec ID : XVID
Codec ID/Hint : XviD
Duration : 2h 5mn
Bit rate : 1 513 Kbps
Width : 640 pixels
Height : 480 pixels
Display aspect ratio : 4:3
Frame rate : 29.970 fps
Color space : YUV
Chroma subsampling : 4:2:0
Bit depth : 8 bits
Scan type : Progressive
Bits/(Pixel*Frame) : 0.164
Stream size : 1.32 GiB (88%)
Writing library : XviD 1.1.2 (UTC 2006-11-01)

Audio
ID : 1
Format : MPEG Audio
Format version : Version 1
Format profile : Layer 3
Mode : Joint stereo
Mode extension : MS Stereo
Codec ID : 55
Codec ID/Hint : MP3
Duration : 2h 5mn
Bit rate mode : Constant
Bit rate : 192 Kbps
Channel(s) : 2 channels
Sampling rate : 44.1 KHz
Video delay : 33ms
Stream size : 172 MiB (11%)
Alignment : Split accross interleaves
Interleave, duration : 500 ms (14.98 video frames)
Interleave, preload duration : 500 ms
Writing library : LAME3.98.2
 
http://www.imdb.com/title/tt1458175/


Users: 7.3/10 (6,009 votes) 63 reviews | Critics: 141 reviews Metascore: 52/100 (based on 35 reviews from Metacritic.com)

A married couple's life is turned upside down when the wife is accused of a murder.
Director:
Paul Haggis
Writers:
Paul Haggis (screenplay), Fred Cavayé (screenplay), and 1 more credit »
Stars:
Russell Crowe, Elizabeth Banks and Liam Neeson



Video sources - IFLIX PPV - Lu CAM - Thanks
Audio sources - IFLIX PPV - Lu CAM - Thanks


First of all the PPV was missing exactly 1 min 5 secs from the end so cut the end from Lus Cam and joined it onto the end of IFLIXs PPV .The quality of the CAM is totally acceptable to see what actually happens at the end of this movie if you dont already know .

Ran a few filters through this as the PPV was quite badly interlaced and in my opinion its not the greatest vid,did that and lowered the red a touch ran a denoise filter but it still suffers from pixelation during movement ,touched on the contrast and altered the value level.....

With the 1 min of CAM all i did was a resize and join not alot else .The join itself isnt the most subtle but it dont overlap and nothing is missing .


I went with a 4:3 AR as i believe thats how it should be


Was it worth all the work im not sure really as retail is pretty soon but heres a copy with the end intact ..........

Apologies no sample included !

Enjoy !